<svg width="14" height="14" viewBox="0 0 14 14" fill="none" xmlns="http://www.w3.org/2000/svg">
<path d="M5.93294 1.26628H3.79961C2.6795 1.26628 2.11945 1.26628 1.69163 1.48426C1.3153 1.67601 1.00934 1.98197 0.817596 2.3583C0.599609 2.78612 0.599609 3.34617 0.599609 4.46628V9.39961C0.599609 10.5197 0.599609 11.0798 0.817596 11.5076C1.00934 11.8839 1.3153 12.1899 1.69163 12.3816C2.11945 12.5996 2.6795 12.5996 3.79961 12.5996H8.73294C9.85305 12.5996 10.4131 12.5996 10.8409 12.3816C11.2172 12.1899 11.5232 11.8839 11.715 11.5076C11.9329 11.0798 11.9329 10.5197 11.9329 9.39961V7.26628M7.26628 9.93294H3.26628M8.59961 7.26628H3.26628M12.0138 1.1854C12.7949 1.96644 12.7949 3.23277 12.0138 4.01382C11.2328 4.79487 9.96644 4.79487 9.1854 4.01382C8.40435 3.23277 8.40435 1.96644 9.1854 1.1854C9.96644 0.404347 11.2328 0.404347 12.0138 1.1854Z" stroke="#121212" stroke-width="1.2" stroke-linecap="round" stroke-linejoin="round"/>
</svg>
